<?xml version="1.0" encoding="utf-8"?>
<!-- Generator: Adobe Illustrator 23.1.0, SVG Export Plug-In . SVG Version: 6.00 Build 0)  -->
<svg version="1.1" id="Layer_1" xmlns="http://www.w3.org/2000/svg" xmlns:xlink="http://www.w3.org/1999/xlink" x="0px" y="0px"
	 viewBox="0 0 208.1 72" style="enable-background:new 0 0 208.1 72;" xml:space="preserve">
<style type="text/css">
	.st0{fill:#222222;}
	.st1{fill:#FFFFFF;}
	.st2{fill:#F06724;}
	.st3{fill:url(#SVGID_2_);}
	.st4{clip-path:url(#SVGID_4_);fill:url(#SVGID_6_);}
	.st5{fill:url(#SVGID_7_);}
	.st6{clip-path:url(#SVGID_10_);fill:url(#SVGID_11_);}
	.st7{fill:url(#SVGID_12_);}
	.st8{clip-path:url(#SVGID_15_);fill:url(#SVGID_16_);}
	.st9{fill:url(#SVGID_18_);}
	.st10{clip-path:url(#SVGID_20_);fill:url(#SVGID_22_);}
	.st11{fill:url(#SVGID_23_);}
	.st12{clip-path:url(#SVGID_25_);fill:url(#SVGID_26_);}
	.st13{fill:url(#SVGID_27_);}
	.st14{clip-path:url(#SVGID_29_);fill:url(#SVGID_30_);}
</style>
<path class="st0" d="M199.3,2.7H9.2C5.8,2.7,2.9,5.5,2.9,9v54.1c0,3.4,2.8,6.3,6.3,6.3h190.1c3.4,0,6.3-2.8,6.3-6.3V9
	C205.6,5.5,202.8,2.7,199.3,2.7z"/>
<g>
	<path class="st1" d="M93.7,21.2c1-0.1,1.9-0.2,2.9-0.2c1-0.1,2-0.1,3-0.1c1.1,0,2.2,0.1,3.2,0.3s2,0.6,2.9,1.2
		c0.9,0.6,1.6,1.5,2.1,2.4c0.5,1,0.8,2.4,0.8,4s-0.3,3-0.8,4c-0.5,1-1.2,1.8-2.1,2.4c-0.9,0.6-1.9,1-2.9,1.2s-2.1,0.3-3.1,0.3
		c-0.3,0-0.5,0-0.8,0c-0.2,0-0.5,0-0.7,0V44c-0.4,0.1-0.8,0.1-1.2,0.1c-0.4,0-0.7,0-1.1,0s-0.7,0-1.1,0S94,44,93.6,44L93.7,21.2z
		 M98.3,32.9c0.2,0,0.5,0.1,0.7,0.1h0.8c0.5,0,1-0.1,1.6-0.2c0.5-0.1,0.9-0.4,1.3-0.7c0.4-0.3,0.7-0.8,0.9-1.2
		c0.2-0.6,0.4-1.3,0.3-1.9c0-0.7-0.1-1.3-0.3-2c-0.2-0.5-0.5-0.9-0.9-1.3c-0.4-0.3-0.9-0.6-1.3-0.7c-0.5-0.1-1-0.2-1.6-0.2
		c-0.2,0-0.4,0-0.6,0s-0.5,0-0.9,0.1V32.9z M111.8,20.9c0.7-0.1,1.5-0.2,2.2-0.2s1.5,0.1,2.2,0.2v16.6c0,0.5,0,1.1,0.1,1.6
		c0,0.3,0.2,0.7,0.3,0.9c0.1,0.2,0.4,0.4,0.6,0.5c0.3,0.1,0.6,0.1,0.9,0.1c0.2,0,0.4,0,0.6,0c0.2,0,0.4-0.1,0.6-0.1
		c0.2,0.8,0.3,1.7,0.3,2.5v0.5c0,0.2,0,0.3-0.1,0.5c-0.4,0.1-0.8,0.2-1.2,0.2c-0.5,0-0.9,0.1-1.3,0.1c-1.6,0-2.9-0.4-3.9-1.3
		c-1-0.9-1.5-2.4-1.5-4.4L111.8,20.9z M130.3,33.2c0-0.4-0.1-0.8-0.3-1.2c-0.2-0.3-0.4-0.6-0.7-0.7c-0.3-0.2-0.7-0.3-1.1-0.4
		c-0.5-0.1-1-0.1-1.4-0.1c-1.2,0-2.5,0.2-3.6,0.7c-0.3-0.5-0.5-1-0.7-1.5c-0.2-0.6-0.2-1.2-0.2-1.7c0.9-0.3,1.8-0.5,2.8-0.7
		c0.9-0.1,1.7-0.2,2.6-0.2c2.2,0,3.9,0.5,5.1,1.6c1.2,1.1,1.9,2.7,1.8,5.1v9.5c-0.9,0.3-1.8,0.5-2.7,0.7c-1.2,0.2-2.4,0.3-3.6,0.3
		c-1,0-2-0.1-3-0.3c-0.8-0.2-1.6-0.5-2.3-0.9c-0.6-0.4-1.1-1-1.5-1.7c-0.4-0.8-0.6-1.7-0.5-2.6c0-0.9,0.2-1.8,0.6-2.5
		c0.4-0.7,1-1.2,1.7-1.6c0.7-0.4,1.5-0.7,2.3-0.9s1.7-0.3,2.5-0.3c0.6,0,1.3,0,2,0.1L130.3,33.2z M130.3,36.5
		c-0.3,0-0.5-0.1-0.8-0.1s-0.5,0-0.8,0c-0.9,0-1.7,0.1-2.4,0.6c-0.6,0.4-1,1.1-0.9,1.8c0,0.4,0.1,0.9,0.3,1.3
		c0.2,0.3,0.5,0.5,0.8,0.6s0.7,0.2,1,0.3c0.4,0,0.7,0,1,0s0.6,0,0.9-0.1l0.8-0.1L130.3,36.5z M139.1,31.1H137l-0.2-0.6l5.9-7.6h0.7
		v4.8h3.8c0.1,0.3,0.1,0.6,0.1,0.9c0,0.3,0,0.5,0,0.8s0,0.6,0,0.9c0,0.3-0.1,0.6-0.1,0.9h-3.8v6.4c0,0.5,0,1.1,0.2,1.6
		c0.1,0.3,0.2,0.7,0.5,0.9c0.2,0.2,0.5,0.4,0.7,0.5c0.3,0.1,0.7,0.1,1,0.1s0.6,0,0.9-0.1l0.8-0.1c0.1,0.4,0.2,0.8,0.3,1.2
		s0.1,0.8,0.1,1.2c0,0.2,0,0.4,0,0.6c0,0.2,0,0.3,0,0.5c-1,0.2-2,0.3-3,0.3c-1.9,0-3.4-0.4-4.4-1.3c-1-0.9-1.5-2.4-1.5-4.4
		L139.1,31.1z"/>
	<path class="st2" d="M157.6,44.4c-1.2,0-2.4-0.2-3.5-0.6c-0.9-0.4-1.8-1-2.4-1.8c-0.7-0.8-1.1-1.7-1.5-2.7
		c-0.3-1.1-0.5-2.2-0.5-3.3s0.2-2.3,0.5-3.4c0.3-1,0.8-1.9,1.5-2.7s1.5-1.4,2.4-1.8c1.1-0.5,2.3-0.7,3.5-0.7s2.4,0.2,3.5,0.7
		c0.9,0.4,1.8,1,2.5,1.8s1.2,1.7,1.5,2.7c0.3,1.1,0.5,2.2,0.5,3.4c0,1.1-0.2,2.3-0.5,3.3s-0.8,1.9-1.5,2.7s-1.5,1.4-2.5,1.8
		C160,44.2,158.8,44.4,157.6,44.4z M157.6,40.9c1.2,0,2-0.4,2.5-1.3c0.5-0.9,0.8-2.1,0.8-3.8c0-1.6-0.3-2.9-0.8-3.8
		c-0.5-0.9-1.4-1.3-2.5-1.3c-1.2,0-2,0.4-2.5,1.3c-0.5,0.9-0.8,2.1-0.8,3.8c0,1.6,0.3,2.9,0.8,3.8S156.5,40.9,157.6,40.9
		 M168.7,27.6c0.3-0.1,0.6-0.1,0.9-0.1c0.3,0,0.6,0,1,0c0.3,0,0.6,0,0.9,0c0.3,0,0.6,0.1,0.9,0.1c0.1,0.1,0.1,0.3,0.2,0.5
		c0.1,0.2,0.1,0.4,0.1,0.6c0,0.2,0.1,0.4,0.1,0.6c0,0.2,0.1,0.4,0.1,0.5c0.2-0.3,0.5-0.7,0.8-0.9c0.3-0.3,0.6-0.6,1-0.9
		c0.4-0.3,0.8-0.5,1.3-0.6c0.5-0.2,1.1-0.2,1.6-0.2c1.9,0,3.2,0.5,4.2,1.5c0.9,1,1.4,2.6,1.4,4.8v10.4c-1.5,0.3-3,0.3-4.5,0v-9.2
		c0-1.1-0.2-2-0.5-2.6c-0.3-0.6-1-0.9-1.8-0.9c-0.4,0-0.7,0.1-1.1,0.2c-0.4,0.1-0.7,0.3-1,0.6c-0.3,0.4-0.6,0.8-0.7,1.3
		c-0.2,0.7-0.3,1.4-0.3,2.1V44c-1.5,0.3-3,0.3-4.5,0L168.7,27.6z"/>
	<g>
		<g>
			
				<linearGradient id="SVGID_2_" gradientUnits="userSpaceOnUse" x1="44.0541" y1="109.0765" x2="59.1162" y2="109.0765" gradientTransform="matrix(1 0 0 -1 0 156.0783)">
				<stop  offset="0" style="stop-color:#F89521"/>
				<stop  offset="0.5" style="stop-color:#F06724"/>
				<stop  offset="1" style="stop-color:#E05D26"/>
			</linearGradient>
			<path id="SVGID_1_" class="st3" d="M46.2,40.5C45,41,44,42.6,44,43.9v10.6c0,0.4,0.1,0.8,0.3,1.1c0.2,0.2,0.5,0.4,0.8,0.4l0,0
				c0.3,0,0.5-0.1,0.8-0.2l10.9-5c1.2-0.5,2.2-2.1,2.2-3.4v-6c0-0.9-7.5-3.3-7.5-3.3L46.2,40.5z"/>
		</g>
		<g>
			<defs>
				<path id="SVGID_3_" d="M46.2,40.5C45,41,44,42.6,44,43.9v10.6c0,0.4,0.1,0.8,0.3,1.1c0.2,0.2,0.5,0.4,0.8,0.4l0,0
					c0.3,0,0.5-0.1,0.8-0.2l10.9-5c1.2-0.5,2.2-2.1,2.2-3.4v-6c0-0.9-7.5-3.3-7.5-3.3L46.2,40.5z"/>
			</defs>
			<clipPath id="SVGID_4_">
				<use xlink:href="#SVGID_3_"  style="overflow:visible;"/>
			</clipPath>
			
				<linearGradient id="SVGID_6_" gradientUnits="userSpaceOnUse" x1="-2420.499" y1="1023.6849" x2="-2420.0447" y2="1023.6849" gradientTransform="matrix(33.1956 0 0 -33.1956 80393.9531 34028.832)">
				<stop  offset="0" style="stop-color:#F89521"/>
				<stop  offset="0.5" style="stop-color:#F06724"/>
				<stop  offset="1" style="stop-color:#E05D26"/>
			</linearGradient>
			<rect x="44" y="38.1" class="st4" width="15.1" height="17.9"/>
		</g>
	</g>
	<g>
		<g>
			
				<linearGradient id="SVGID_7_" gradientUnits="userSpaceOnUse" x1="39.2723" y1="118.1265" x2="59.1223" y2="118.1265" gradientTransform="matrix(1 0 0 -1 0 156.0783)">
				<stop  offset="0" style="stop-color:#F89521"/>
				<stop  offset="0.5" style="stop-color:#F06724"/>
				<stop  offset="1" style="stop-color:#E05D26"/>
			</linearGradient>
			<path id="SVGID_5_" class="st5" d="M39.3,32.2c0,1.7,1.3,3.8,2.9,4.5l16.9,7.8v-3.9l-19.8-9.1V32.2z"/>
		</g>
		<g>
			<defs>
				<path id="SVGID_8_" d="M39.3,32.2c0,1.7,1.3,3.8,2.9,4.5l16.9,7.8v-3.9l-19.8-9.1V32.2z"/>
			</defs>
			<clipPath id="SVGID_10_">
				<use xlink:href="#SVGID_8_"  style="overflow:visible;"/>
			</clipPath>
			
				<linearGradient id="SVGID_11_" gradientUnits="userSpaceOnUse" x1="-2437.6472" y1="1032.7552" x2="-2437.1934" y2="1032.7552" gradientTransform="matrix(43.7471 0 0 -43.7471 106679.2734 45218)">
				<stop  offset="0" style="stop-color:#F89521"/>
				<stop  offset="0.5" style="stop-color:#F06724"/>
				<stop  offset="1" style="stop-color:#E05D26"/>
			</linearGradient>
			<rect x="39.3" y="31.5" class="st6" width="19.9" height="13"/>
		</g>
	</g>
	<g>
		<g>
			
				<linearGradient id="SVGID_12_" gradientUnits="userSpaceOnUse" x1="39.2723" y1="129.3765" x2="59.1223" y2="129.3765" gradientTransform="matrix(1 0 0 -1 0 156.0783)">
				<stop  offset="0" style="stop-color:#F89521"/>
				<stop  offset="0.5" style="stop-color:#F06724"/>
				<stop  offset="1" style="stop-color:#E05D26"/>
			</linearGradient>
			<path id="SVGID_9_" class="st7" d="M43.9,23.8l-2.1-1c-0.7-0.4-1.1-1.1-1.2-1.8v-1.4c0-0.7,0.5-1,1.2-0.8l2.1,1
				c0.7,0.4,1.1,1,1.2,1.8V23c0,0.5-0.3,0.9-0.7,0.9C44.2,23.9,44.1,23.9,43.9,23.8 M39.3,18.4V28l19.9,9.1v-9.3
				c0-1.7-1.3-3.8-2.9-4.5L42,16.7c-0.3-0.2-0.7-0.2-1-0.3C39.9,16.4,39.3,17.2,39.3,18.4"/>
		</g>
		<g>
			<defs>
				<path id="SVGID_14_" d="M43.9,23.8l-2.1-1c-0.7-0.4-1.1-1.1-1.2-1.8v-1.4c0-0.7,0.5-1,1.2-0.8l2.1,1c0.7,0.4,1.1,1,1.2,1.8V23
					c0,0.5-0.3,0.9-0.7,0.9C44.2,23.9,44.1,23.9,43.9,23.8 M39.3,18.4V28l19.9,9.1v-9.3c0-1.7-1.3-3.8-2.9-4.5L42,16.7
					c-0.3-0.2-0.7-0.2-1-0.3C39.9,16.4,39.3,17.2,39.3,18.4"/>
			</defs>
			<clipPath id="SVGID_15_">
				<use xlink:href="#SVGID_14_"  style="overflow:visible;"/>
			</clipPath>
			
				<linearGradient id="SVGID_16_" gradientUnits="userSpaceOnUse" x1="-2437.6472" y1="1032.4441" x2="-2437.1934" y2="1032.4441" gradientTransform="matrix(43.7471 0 0 -43.7471 106679.2734 45193.0859)">
				<stop  offset="0" style="stop-color:#F89521"/>
				<stop  offset="0.5" style="stop-color:#F06724"/>
				<stop  offset="1" style="stop-color:#E05D26"/>
			</linearGradient>
			<rect x="39.3" y="16.4" class="st8" width="19.9" height="20.6"/>
		</g>
	</g>
	<g>
		<g>
			
				<linearGradient id="SVGID_18_" gradientUnits="userSpaceOnUse" x1="62.3061" y1="109.0765" x2="77.3674" y2="109.0765" gradientTransform="matrix(1 0 0 -1 0 156.0783)">
				<stop  offset="0" style="stop-color:#F89521"/>
				<stop  offset="0.5" style="stop-color:#F06724"/>
				<stop  offset="1" style="stop-color:#E05D26"/>
			</linearGradient>
			<path id="SVGID_13_" class="st9" d="M62.3,41.4v6c0,1.3,1,2.9,2.2,3.4l10.9,5c0.2,0.1,0.5,0.2,0.8,0.2l0,0c0.3,0,0.6-0.1,0.8-0.4
				c0.2-0.3,0.4-0.7,0.3-1.1V43.9c0-1.3-1-2.9-2.2-3.4l-5.3-2.4C69.8,38.1,62.3,40.5,62.3,41.4"/>
		</g>
		<g>
			<defs>
				<path id="SVGID_19_" d="M62.3,41.4v6c0,1.3,1,2.9,2.2,3.4l10.9,5c0.2,0.1,0.5,0.2,0.8,0.2l0,0c0.3,0,0.6-0.1,0.8-0.4
					c0.2-0.3,0.4-0.7,0.3-1.1V43.9c0-1.3-1-2.9-2.2-3.4l-5.3-2.4C69.8,38.1,62.3,40.5,62.3,41.4"/>
			</defs>
			<clipPath id="SVGID_20_">
				<use xlink:href="#SVGID_19_"  style="overflow:visible;"/>
			</clipPath>
			
				<linearGradient id="SVGID_22_" gradientUnits="userSpaceOnUse" x1="-2562.5757" y1="1023.6837" x2="-2562.1216" y2="1023.6837" gradientTransform="matrix(-33.1954 0 0 -33.1954 -84988.3438 34028.5938)">
				<stop  offset="0" style="stop-color:#F89521"/>
				<stop  offset="0.5" style="stop-color:#F06724"/>
				<stop  offset="1" style="stop-color:#E05D26"/>
			</linearGradient>
			<rect x="62.3" y="38.1" class="st10" width="15.1" height="17.9"/>
		</g>
	</g>
	<g>
		<g>
			
				<linearGradient id="SVGID_23_" gradientUnits="userSpaceOnUse" x1="62.3061" y1="118.1265" x2="82.1544" y2="118.1265" gradientTransform="matrix(1 0 0 -1 0 156.0783)">
				<stop  offset="0" style="stop-color:#F89521"/>
				<stop  offset="0.5" style="stop-color:#F06724"/>
				<stop  offset="1" style="stop-color:#E05D26"/>
			</linearGradient>
			<path id="SVGID_17_" class="st11" d="M62.3,40.6v3.9l16.9-7.8c1.6-0.7,2.9-2.8,2.9-4.5v-0.7L62.3,40.6z"/>
		</g>
		<g>
			<defs>
				<path id="SVGID_24_" d="M62.3,40.6v3.9l16.9-7.8c1.6-0.7,2.9-2.8,2.9-4.5v-0.7L62.3,40.6z"/>
			</defs>
			<clipPath id="SVGID_25_">
				<use xlink:href="#SVGID_24_"  style="overflow:visible;"/>
			</clipPath>
			
				<linearGradient id="SVGID_26_" gradientUnits="userSpaceOnUse" x1="-2545.4568" y1="1032.7545" x2="-2545.0032" y2="1032.7545" gradientTransform="matrix(-43.7471 0 0 -43.7471 -111274.2031 45217.9688)">
				<stop  offset="0" style="stop-color:#F89521"/>
				<stop  offset="0.5" style="stop-color:#F06724"/>
				<stop  offset="1" style="stop-color:#E05D26"/>
			</linearGradient>
			<rect x="62.3" y="31.5" class="st12" width="19.8" height="13"/>
		</g>
	</g>
	<g>
		<g>
			
				<linearGradient id="SVGID_27_" gradientUnits="userSpaceOnUse" x1="62.306" y1="129.3265" x2="82.1544" y2="129.3265" gradientTransform="matrix(1 0 0 -1 0 156.0783)">
				<stop  offset="0" style="stop-color:#F89521"/>
				<stop  offset="0.5" style="stop-color:#F06724"/>
				<stop  offset="1" style="stop-color:#E05D26"/>
			</linearGradient>
			<path id="SVGID_21_" class="st13" d="M76.3,23.1v-1.4c0-0.8,0.5-1.5,1.2-1.8l2.1-1c0.6-0.3,1.2,0,1.2,0.8v1.4
				c0,0.8-0.5,1.5-1.2,1.8l-2.1,0.9c-0.2,0.1-0.3,0.1-0.4,0.1C76.6,23.9,76.3,23.6,76.3,23.1 M79.5,16.7l-14.3,6.6
				c-1.6,0.7-2.9,2.8-2.9,4.5v9.3L82.1,28v-9.6c0-1.2-0.6-1.9-1.6-1.9C80.2,16.5,79.8,16.5,79.5,16.7"/>
		</g>
		<g>
			<defs>
				<path id="SVGID_28_" d="M76.3,23.1v-1.4c0-0.8,0.5-1.5,1.2-1.8l2.1-1c0.6-0.3,1.2,0,1.2,0.8v1.4c0,0.8-0.5,1.5-1.2,1.8l-2.1,0.9
					c-0.2,0.1-0.3,0.1-0.4,0.1C76.6,23.9,76.3,23.6,76.3,23.1 M79.5,16.7l-14.3,6.6c-1.6,0.7-2.9,2.8-2.9,4.5v9.3L82.1,28v-9.6
					c0-1.2-0.6-1.9-1.6-1.9C80.2,16.5,79.8,16.5,79.5,16.7"/>
			</defs>
			<clipPath id="SVGID_29_">
				<use xlink:href="#SVGID_28_"  style="overflow:visible;"/>
			</clipPath>
			
				<linearGradient id="SVGID_30_" gradientUnits="userSpaceOnUse" x1="-2545.4568" y1="1032.4434" x2="-2545.0032" y2="1032.4434" gradientTransform="matrix(-43.7471 0 0 -43.7471 -111274.2031 45193.0547)">
				<stop  offset="0" style="stop-color:#F89521"/>
				<stop  offset="0.5" style="stop-color:#F06724"/>
				<stop  offset="1" style="stop-color:#E05D26"/>
			</linearGradient>
			<rect x="62.3" y="16.4" class="st14" width="19.8" height="20.6"/>
		</g>
	</g>
	<g>
		<path class="st1" d="M96.4,48.9c0.3,0.3,0.5,0.6,0.5,1.1c0,0.4-0.2,0.8-0.5,1.1s-0.7,0.4-1.3,0.4h-1v1.2h-0.6v-4.1h1.6
			C95.6,48.6,96.1,48.7,96.4,48.9z M95.9,50.7c0.2-0.2,0.3-0.4,0.3-0.7s-0.1-0.5-0.3-0.7c-0.2-0.2-0.5-0.2-0.9-0.2h-1v1.8h1
			C95.5,50.9,95.8,50.8,95.9,50.7z"/>
		<path class="st1" d="M100.1,51.6h-2.2l-0.5,1h-0.6l1.9-4.1h0.6l1.9,4.1h-0.6L100.1,51.6z M99.9,51.2l-0.9-2l-0.9,2H99.9z"/>
		<path class="st1" d="M103.1,51.3v1.4h-0.6v-1.4l-1.6-2.7h0.6l1.3,2.2l1.3-2.2h0.6L103.1,51.3z"/>
		<path class="st1" d="M109.1,52.7v-3l-1.5,2.5h-0.3l-1.5-2.5v3h-0.6v-4.1h0.5l1.7,2.9l1.7-2.9h0.5v4.1H109.1z"/>
		<path class="st1" d="M113.9,52.2v0.5h-3v-4.1h2.9v0.5h-2.3v1.3h2.1v0.5h-2.1v1.3H113.9z"/>
		<path class="st1" d="M118.4,48.6v4.1h-0.5l-2.5-3.1v3.1h-0.6v-4.1h0.5l2.5,3.1v-3.1H118.4z"/>
		<path class="st1" d="M120.5,49.1H119v-0.5h3.4v0.5H121v3.6h-0.6v-3.6H120.5z"/>
		<path class="st1" d="M125,52.6c-0.3-0.1-0.5-0.2-0.7-0.4l0.2-0.5c0.2,0.1,0.4,0.3,0.6,0.3c0.2,0.1,0.5,0.1,0.8,0.1
			s0.6-0.1,0.8-0.2c0.2-0.1,0.3-0.3,0.3-0.5c0-0.1,0-0.3-0.1-0.3c-0.1-0.1-0.2-0.2-0.3-0.2s-0.3-0.1-0.6-0.2
			c-0.3-0.1-0.6-0.1-0.8-0.2c-0.2-0.1-0.4-0.2-0.5-0.3c-0.1-0.2-0.2-0.4-0.2-0.6c0-0.2,0.1-0.4,0.2-0.6c0.1-0.2,0.3-0.3,0.5-0.4
			c0.2-0.1,0.5-0.2,0.9-0.2c0.2,0,0.5,0,0.7,0.1s0.4,0.2,0.6,0.3l-0.2,0.5c-0.2-0.1-0.4-0.2-0.6-0.3c-0.2-0.1-0.4-0.1-0.6-0.1
			c-0.3,0-0.6,0.1-0.8,0.2c-0.2,0.1-0.3,0.3-0.3,0.5c0,0.1,0,0.3,0.1,0.3c0.1,0.1,0.2,0.2,0.4,0.2c0.1,0,0.3,0.1,0.6,0.2
			c0.3,0.1,0.6,0.1,0.7,0.2c0.2,0.1,0.4,0.2,0.5,0.3c0.1,0.2,0.2,0.4,0.2,0.6c0,0.2-0.1,0.4-0.2,0.6c-0.1,0.2-0.3,0.3-0.5,0.4
			c-0.2,0.1-0.5,0.2-0.9,0.2C125.6,52.7,125.3,52.7,125,52.6z"/>
		<path class="st1" d="M131.3,52.2v0.5h-3v-4.1h2.9v0.5h-2.3v1.3h2.1v0.5h-2.1v1.3H131.3z"/>
		<path class="st1" d="M135,52.7l-0.9-1.3c-0.1,0-0.2,0-0.3,0h-1v1.3h-0.6v-4.1h1.6c0.5,0,1,0.1,1.3,0.4c0.3,0.3,0.5,0.6,0.5,1.1
			c0,0.3-0.1,0.6-0.2,0.8c-0.2,0.2-0.4,0.4-0.7,0.5l1,1.4L135,52.7L135,52.7z M134.7,50.7c0.2-0.2,0.3-0.4,0.3-0.7s-0.1-0.5-0.3-0.7
			s-0.5-0.2-0.9-0.2h-1V51h1C134.2,50.9,134.5,50.8,134.7,50.7z"/>
		<path class="st1" d="M140.1,48.6l-1.8,4.1h-0.6l-1.8-4.1h0.6L138,52l1.5-3.4H140.1z"/>
		<path class="st1" d="M140.7,48.6h0.6v4.1h-0.6V48.6z"/>
		<path class="st1" d="M143.2,52.4c-0.3-0.2-0.6-0.4-0.8-0.8c-0.2-0.3-0.3-0.7-0.3-1.1c0-0.4,0.1-0.8,0.3-1.1s0.4-0.6,0.8-0.8
			c0.3-0.2,0.7-0.3,1.1-0.3c0.3,0,0.6,0.1,0.9,0.2c0.3,0.1,0.5,0.3,0.7,0.5l-0.4,0.4c-0.3-0.3-0.7-0.5-1.2-0.5
			c-0.3,0-0.6,0.1-0.8,0.2c-0.2,0.1-0.4,0.3-0.6,0.6c-0.1,0.2-0.2,0.5-0.2,0.8s0.1,0.6,0.2,0.8c0.1,0.2,0.3,0.4,0.6,0.6
			c0.2,0.1,0.5,0.2,0.8,0.2c0.5,0,0.8-0.2,1.2-0.5l0.4,0.4c-0.2,0.2-0.4,0.4-0.7,0.5s-0.6,0.2-0.9,0.2
			C143.9,52.7,143.5,52.6,143.2,52.4z"/>
		<path class="st1" d="M149.7,52.2v0.5h-3v-4.1h2.9v0.5h-2.3v1.3h2.1v0.5h-2.1v1.3H149.7z"/>
		<path class="st1" d="M155.1,48.9c0.3,0.3,0.5,0.6,0.5,1.1c0,0.4-0.2,0.8-0.5,1.1s-0.7,0.4-1.3,0.4h-1v1.2h-0.6v-4.1h1.6
			C154.4,48.6,154.8,48.7,155.1,48.9z M154.7,50.7c0.2-0.2,0.3-0.4,0.3-0.7s-0.1-0.5-0.3-0.7s-0.5-0.2-0.9-0.2h-1v1.8h1
			C154.2,50.9,154.5,50.8,154.7,50.7z"/>
		<path class="st1" d="M159.2,52.7l-0.9-1.3c-0.1,0-0.2,0-0.3,0h-1v1.3h-0.6v-4.1h1.6c0.5,0,1,0.1,1.3,0.4c0.3,0.3,0.5,0.6,0.5,1.1
			c0,0.3-0.1,0.6-0.2,0.8c-0.2,0.2-0.4,0.4-0.7,0.5l1,1.4L159.2,52.7L159.2,52.7z M158.9,50.7c0.2-0.2,0.3-0.4,0.3-0.7
			s-0.1-0.5-0.3-0.7s-0.5-0.2-0.9-0.2h-1V51h1C158.4,50.9,158.7,50.8,158.9,50.7z"/>
		<path class="st1" d="M161.5,52.4c-0.3-0.2-0.6-0.4-0.8-0.8c-0.2-0.3-0.3-0.7-0.3-1.1c0-0.4,0.1-0.8,0.3-1.1s0.5-0.6,0.8-0.8
			s0.7-0.3,1.1-0.3c0.4,0,0.8,0.1,1.1,0.3s0.6,0.4,0.8,0.8c0.2,0.3,0.3,0.7,0.3,1.1c0,0.4-0.1,0.8-0.3,1.1s-0.4,0.6-0.8,0.8
			c-0.3,0.2-0.7,0.3-1.1,0.3S161.8,52.6,161.5,52.4z M163.4,52c0.2-0.1,0.4-0.3,0.6-0.6c0.1-0.2,0.2-0.5,0.2-0.8s-0.1-0.6-0.2-0.8
			c-0.1-0.2-0.3-0.4-0.6-0.6c-0.2-0.1-0.5-0.2-0.8-0.2s-0.6,0.1-0.8,0.2c-0.2,0.1-0.4,0.3-0.6,0.6c-0.1,0.2-0.2,0.5-0.2,0.8
			s0.1,0.6,0.2,0.8c0.1,0.2,0.3,0.4,0.6,0.6c0.2,0.1,0.5,0.2,0.8,0.2S163.2,52.1,163.4,52z"/>
		<path class="st1" d="M169.1,48.6l-1.8,4.1h-0.6l-1.8-4.1h0.6L167,52l1.5-3.4H169.1z"/>
		<path class="st1" d="M169.7,48.6h0.6v4.1h-0.6V48.6z"/>
		<path class="st1" d="M171.5,48.6h1.7c0.4,0,0.8,0.1,1.2,0.3c0.3,0.2,0.6,0.4,0.8,0.7s0.3,0.7,0.3,1.1c0,0.4-0.1,0.8-0.3,1.1
			s-0.4,0.6-0.8,0.7c-0.3,0.2-0.7,0.3-1.2,0.3h-1.7V48.6z M173.2,52.2c0.3,0,0.6-0.1,0.9-0.2c0.3-0.1,0.4-0.3,0.6-0.5
			c0.1-0.2,0.2-0.5,0.2-0.8s-0.1-0.6-0.2-0.8c-0.1-0.2-0.3-0.4-0.6-0.5s-0.5-0.2-0.9-0.2h-1.1v3.1h1.1V52.2z"/>
		<path class="st1" d="M179.3,52.2v0.5h-3v-4.1h2.9v0.5h-2.3v1.3h2.1v0.5h-2.1v1.3H179.3z"/>
		<path class="st1" d="M183,52.7l-0.9-1.3c-0.1,0-0.2,0-0.3,0h-1v1.3h-0.6v-4.1h1.6c0.5,0,1,0.1,1.3,0.4c0.3,0.3,0.5,0.6,0.5,1.1
			c0,0.3-0.1,0.6-0.2,0.8c-0.2,0.2-0.4,0.4-0.7,0.5l1,1.4L183,52.7L183,52.7z M182.7,50.7c0.2-0.2,0.3-0.4,0.3-0.7s-0.1-0.5-0.3-0.7
			s-0.5-0.2-0.9-0.2h-1V51h1C182.3,50.9,182.5,50.8,182.7,50.7z"/>
	</g>
</g>
<g>
	<path class="st1" d="M30.5,57h-8.4v-2.4c0-0.7,0.2-1.4,0.5-1.9c0.3-0.6,0.8-1,1.4-1.3c0.6-0.3,1.3-0.5,2.1-0.5h0.5
		c0.8,0,1.5,0.2,2.1,0.5s1.1,0.7,1.4,1.3c0.3,0.6,0.5,1.2,0.5,2L30.5,57L30.5,57z M23,55.9h6.6v-1.2c0-0.9-0.3-1.5-0.8-2
		S27.5,52,26.5,52H26c-1,0-1.7,0.2-2.2,0.7c-0.5,0.4-0.8,1.1-0.8,1.9V55.9z"/>
	<path class="st1" d="M27.3,49.7c-0.6,0-1.2-0.1-1.7-0.4c-0.5-0.2-0.9-0.6-1.1-1c-0.3-0.4-0.4-0.9-0.4-1.5c0-0.9,0.3-1.5,0.9-2.1
		c0.6-0.5,1.4-0.8,2.4-0.8h0.1c0.6,0,1.2,0.1,1.6,0.3c0.5,0.2,0.9,0.6,1.1,1c0.3,0.4,0.4,0.9,0.4,1.5c0,0.8-0.3,1.5-0.9,2.1
		C29.2,49.5,28.4,49.7,27.3,49.7L27.3,49.7z M27.5,48.7c0.7,0,1.3-0.2,1.7-0.5s0.6-0.8,0.6-1.3s-0.2-1-0.6-1.3s-1-0.5-1.8-0.5
		c-0.7,0-1.2,0.2-1.7,0.5s-0.6,0.8-0.6,1.3s0.2,1,0.6,1.3S26.7,48.7,27.5,48.7z"/>
	<path class="st1" d="M24.3,41.7h0.8c-0.6-0.5-0.9-1.1-0.9-1.9c0-1.3,0.7-2,2.2-2h4.1v1.1h-4.1c-0.5,0-0.8,0.1-1,0.3
		s-0.3,0.5-0.3,0.9c0,0.3,0.1,0.7,0.3,0.9c0.2,0.3,0.4,0.5,0.7,0.6h4.5v1.1h-6.3V41.7z"/>
	<path class="st1" d="M30.6,33.6c0,0.8-0.3,1.5-0.8,2.1c-0.6,0.5-1.3,0.8-2.2,0.8h-0.2c-0.6,0-1.2-0.1-1.7-0.4
		c-0.5-0.2-0.9-0.6-1.1-1s-0.4-0.9-0.4-1.4c0-0.8,0.3-1.4,0.8-1.9c0.5-0.5,1.3-0.7,2.3-0.7h0.4v4.2c0.6,0,1.1-0.2,1.5-0.5
		s0.6-0.8,0.6-1.3c0-0.4-0.1-0.7-0.2-1c-0.2-0.3-0.4-0.5-0.6-0.7l0.5-0.7C30.2,31.7,30.6,32.5,30.6,33.6z M25,33.7
		c0,0.4,0.2,0.8,0.5,1.1s0.8,0.5,1.3,0.5v-3.1h-0.1c-0.5,0-1,0.2-1.3,0.4C25.2,32.9,25,33.2,25,33.7z"/>
	<path class="st1" d="M27.5,21.6c1,0,1.7,0.2,2.3,0.7c0.6,0.4,0.9,1,0.9,1.8s-0.3,1.4-0.8,1.8l0.7,0.1v1h-8.9v-1.1H25
		c-0.5-0.4-0.8-1-0.8-1.8s0.3-1.4,0.9-1.8C25.6,21.9,26.4,21.6,27.5,21.6L27.5,21.6z M27.3,22.7c-0.7,0-1.3,0.1-1.7,0.4
		c-0.4,0.3-0.6,0.7-0.6,1.2c0,0.7,0.3,1.2,1,1.5h2.7c0.7-0.3,1-0.8,1-1.5c0-0.5-0.2-0.9-0.6-1.2C28.7,22.9,28.1,22.7,27.3,22.7z"/>
	<path class="st1" d="M29,18.3l-4.7-1.5v-1.1l7.2,2.5c1,0.4,1.6,1,1.6,1.9v0.2L33,20.7h-0.9v-0.3c0-0.4-0.1-0.6-0.2-0.8
		c-0.1-0.2-0.4-0.4-0.8-0.5l-0.6-0.2l-6.2,2.2v-1.2L29,18.3z"/>
</g>
</svg>
