<?xml version="1.0" encoding="utf-8"?>
<!-- Generator: Adobe Illustrator 23.1.0, SVG Export Plug-In . SVG Version: 6.00 Build 0)  -->
<svg version="1.1" id="Layer_1" xmlns="http://www.w3.org/2000/svg" xmlns:xlink="http://www.w3.org/1999/xlink" x="0px" y="0px"
	 viewBox="0 0 1801 400" style="enable-background:new 0 0 1801 400;" xml:space="preserve">
<style type="text/css">
	.st0{fill:#00498F;}
	.st1{fill:#FECA01;}
</style>
<g>
	<path class="st0" d="M707.5,42.1c14.9-2.1,30-2,45-0.3c-9.2,14.6-18.9,29-28.3,43.5c-29.8,1.6-58.6,15.7-78.3,38.1
		c-14.3,16-23.9,36.2-27,57.4c-5.5,32.6,4.6,67.4,26.5,92.2c16.9,19.6,40.7,32.9,66.1,37.3c17,2.6,34.6,2,51.1-2.9
		c30.8-8.8,57.3-31.5,70.9-60.5c14.6-30.5,14.3-67.6-0.5-98l0.2-1c8.9-13.6,17.8-27.3,26.7-40.9c18.5,25.7,28.8,57.2,29.1,88.8
		c0.9,38.9-13.5,77.9-39.3,107.1c-20.9,23.9-49.2,41.2-80,48.9c-37.2,9.3-77.9,4.9-111.9-13.1c-30.5-15.8-55.5-41.9-70-73
		c-15-31.7-18.8-68.5-11-102.6c7.8-34.6,27.8-66.3,55.6-88.4C653.9,57.5,680.1,46.1,707.5,42.1z"/>
	<path class="st0" d="M1049.3,47.8c31.9-3.9,65.2,1,93.5,16.7c-0.1,22.1,0,44.2,0,66.3c-9.3-10.4-20.5-19.1-33.3-24.7
		c-29.2-13.2-65-9.8-91.2,8.7c-23.3,16.2-38,43.2-41.2,71.2c-1.5,15.1-0.9,30.6,3.6,45.2c8.3,29.6,32.7,53.6,62,62.7
		c23.6,7.9,50.6,7,72.8-4.8c10.4-5.4,19.5-13.1,27.3-21.8c0,22-0.1,44.1,0,66.1c-23.6,12.7-50.7,17.8-77.3,17.1
		c-16.7-0.6-33.5-2.7-49.3-8.3c-26.9-9-49.9-27.4-67.5-49.4c-13.5-17.1-23.3-37.3-27.4-58.7c-2.7-11.8-3.3-23.9-3.4-36
		c-0.1-27.9,6.5-56,20.5-80.2c15.5-27.1,40.3-49.1,69.5-60.4C1021.2,52.4,1035.2,49.1,1049.3,47.8z"/>
	<path class="st0" d="M62.6,53.1c77.5,0,155.1,0,232.6,0c0,96.9,0,193.8,0,290.8c-19.4,0-38.8,0-58.2,0c0-79.9,0-159.7,0-239.6
		c-38.7,0-77.4,0-116.1,0c0,79.9,0,159.7,0,239.6c-19.4,0-38.9,0-58.3,0C62.6,247,62.6,150.1,62.6,53.1z"/>
	<g>
		<path class="st0" d="M353.1,53.1c27.8,0,55.6,0,83.4,0c14.7-0.1,29.6,0.6,43.9,4.2c20.4,5.1,38.4,18.7,49.5,36.5
			c14.3,23.1,17.4,52.1,10.9,78.2c-4,17.1-13.2,33.3-27.1,44.2c-12.1,9.8-27,15.3-42.2,18.1c-20,3.1-40.2,1.6-60.3,1.9
			c0,35.9,0,71.8,0,107.7c-19.4,0-38.7,0-58.1,0C353.1,247,353.1,150.1,353.1,53.1z M411.1,102c0,28.4,0,56.9,0,85.3
			c10.5-0.1,21,0.2,31.4-0.1c9.2-0.4,18.4-2.7,26-8c18.4-13.2,22.4-41.9,8.9-59.9c-5.7-7.9-14.7-12.9-24.1-15
			C439.5,101.2,425.2,102.1,411.1,102z"/>
	</g>
	<path class="st0" d="M1200.8,53.4c62.3,0,124.7,0,187,0c0,17,0,34.1,0,51.1c-21.6,0-43.2,0-64.7,0c0,79.8,0,159.6,0,239.3
		c-19.4,0-38.7,0-58.1,0c0-79.9,0-159.7,0-239.6c-21.4,0-42.8,0-64.2,0C1200.7,87.4,1200.8,70.4,1200.8,53.4z"/>
	<path class="st0" d="M1446,53.1c19.4,0.1,38.8-0.2,58.2,0c0,96.9,0,193.8,0,290.7c-19.4,0-38.8,0-58.2,0
		C1446,247,1446,150.1,1446,53.1z"/>
	<g>
		<path class="st0" d="M1562.2,53.1c30.5,0,60.9,0,91.4,0c17.3,0.4,35.2,1.9,51.1,9.6c18.9,9.2,34,25.7,41.5,45.3
			c7.4,18.6,8.4,39.4,4.9,58.9c-3.4,16.8-10.9,33.2-23.5,45c-15.8,15-37.7,22.2-59.2,23.6c-16,1-32,0.3-48.1,0.5
			c0,35.9,0,71.8,0,107.8c-19.4,0-38.8,0-58.2,0C1562.2,247,1562.1,150.1,1562.2,53.1z M1620.3,102c0,28.4,0,56.9,0,85.3
			c13.4-0.3,26.8,0.8,40.1-1.1c8.6-1.8,17.1-5.6,23.1-12.2c13.9-15.3,15.2-41.4,1.2-57.1c-7-8.2-17.6-12.5-28.1-13.7
			C1644.5,101.3,1632.4,102.2,1620.3,102z"/>
	</g>
</g>
<g>
	<path class="st1" d="M717.6,131.7c12.3-2.1,25.3-1.6,37.1,2.9c15.7,5.6,29.1,17.3,37.1,31.9c7.2,13,9.8,28.4,7.6,43
		c-1.7,13.5-8,26.2-17,36.3c-12.8,14.4-31.9,22.7-51.1,22.8c0-13.3,0-26.5,0-39.8c11,0,21.7-6.8,26.3-16.8
		c5.1-10.2,3.3-23.3-4.3-31.8c-7.4-8.8-20.3-12.5-31.2-8.7c-11.9,3.7-20.8,15.7-20.3,28.2c-13.3,0.1-26.5,0-39.8,0
		c0.1-14.9,4.7-29.8,13.8-41.6C685.7,144.5,701,135,717.6,131.7z"/>
</g>
</svg>
