<?xml version="1.0" encoding="utf-8"?>
<!-- Generator: Adobe Illustrator 23.1.0, SVG Export Plug-In . SVG Version: 6.00 Build 0)  -->
<svg version="1.1" id="VISA_Logo" xmlns="http://www.w3.org/2000/svg" xmlns:xlink="http://www.w3.org/1999/xlink" x="0px" y="0px"
	 viewBox="0 0 230 83" style="enable-background:new 0 0 230 83;" xml:space="preserve">
<style type="text/css">
	.Arched_x0020_Green{fill:url(#SVGID_1_);stroke:#FFFFFF;stroke-width:0.25;stroke-miterlimit:1;}
	.st0{fill:#1A1F71;}
</style>
<linearGradient id="SVGID_1_" gradientUnits="userSpaceOnUse" x1="216" y1="702" x2="216.7071" y2="701.2929">
	<stop  offset="0" style="stop-color:#1EAB4B"/>
	<stop  offset="0.9831" style="stop-color:#19361A"/>
</linearGradient>
<path class="st0" d="M86.2,5.7L57.9,73.2H39.5L25.5,19.3c-0.8-3.3-1.6-4.5-4.2-5.9C17.2,11.1,10.3,9,4.2,7.7l0.4-2h29.7
	c3.8,0,7.2,2.5,8,6.9l7.4,39L67.9,5.7H86.2z M158.5,51.2c0.1-17.8-24.6-18.8-24.5-26.7c0.1-2.4,2.4-5,7.4-5.7
	c2.5-0.3,9.4-0.6,17.2,3l3.1-14.3c-4.2-1.5-9.6-3-16.3-3c-17.3,0-29.4,9.2-29.5,22.3c-0.1,9.7,8.7,15.1,15.3,18.4
	c6.8,3.3,9.1,5.4,9.1,8.4c0,4.5-5.4,6.5-10.4,6.6c-8.8,0.1-13.9-2.4-17.9-4.3l-3.2,14.8c4.1,1.9,11.6,3.5,19.4,3.6
	C146.4,74.2,158.4,65.2,158.5,51.2 M204,73.2h16.1L206.1,5.7h-14.9c-3.3,0-6.2,1.9-7.4,5l-26.2,62.5h18.3l3.6-10.1h22.4L204,73.2z
	 M184.6,49.3l9.2-25.3l5.3,25.3H184.6z M111.1,5.7L96.7,73.2H79.2L93.7,5.7H111.1z"/>
</svg>
